<svg xmlns="http://www.w3.org/2000/svg" width="256" height="320" viewBox="0 0 256 320" shape-rendering="crispEdges">
  <defs>
    <style>.o{stroke:#0c1320;stroke-width:3;stroke-linejoin:round;stroke-linecap:round}.d{stroke:#263746;stroke-width:2;stroke-linejoin:round}</style>
    <linearGradient id="s" x1="0" y1="0" x2="1" y2="1"><stop stop-color="#f5f7f8"/><stop offset=".45" stop-color="#b7c3cc"/><stop offset="1" stop-color="#4a5863"/></linearGradient>
    <linearGradient id="w" x1="0" y1="0" x2="0" y2="1"><stop stop-color="#eff4f2"/><stop offset=".55" stop-color="#aebfc1"/><stop offset="1" stop-color="#647579"/></linearGradient>
    <linearGradient id="b" x1="0" y1="0" x2="0" y2="1"><stop stop-color="#3269ad"/><stop offset=".6" stop-color="#173f77"/><stop offset="1" stop-color="#0a2447"/></linearGradient>
    <radialGradient id="f"><stop stop-color="#fffbd0"/><stop offset=".4" stop-color="#ffc34d"/><stop offset=".78" stop-color="#ee6a28"/><stop offset="1" stop-color="#9d2b28"/></radialGradient>
    <g id="front">
      <ellipse cx="32" cy="74" rx="17" ry="4" fill="#080c14" opacity=".5"/>
      <rect x="21" y="50" width="9" height="20" rx="3" fill="url(#s)" class="o"/><rect x="34" y="50" width="9" height="20" rx="3" fill="url(#s)" class="o"/>
      <path d="M19 31L23 25H41L45 31L43 53H21Z" fill="url(#s)" class="o"/>
      <path d="M23 31H41L39 62H25Z" fill="url(#w)" class="o"/><path d="M29 31H35V60H29Z" fill="url(#b)"/>
      <path d="M18 32L12 46L17 57L24 49L24 33Z" fill="url(#s)" class="o"/><path d="M46 32L52 46L47 57L40 49L40 33Z" fill="url(#s)" class="o"/>
      <rect x="23" y="16" width="18" height="16" rx="5" fill="url(#s)" class="o"/><path d="M22 23H42V29H22Z" fill="#24323e" class="d"/><rect x="26" y="24" width="4" height="2" fill="#f4d980"/><rect x="34" y="24" width="4" height="2" fill="#f4d980"/>
      <path d="M15 43L10 68" stroke="#704a20" stroke-width="4" class="o"/><rect x="11" y="34" width="8" height="12" rx="2" fill="#8a5a27" class="o"/>
      <path d="M10 35Q15 22 20 35Q20 41 15 45Q10 41 10 35Z" fill="url(#f)" class="o"/><path d="M13 35Q15 27 18 35Q18 39 15 41Q13 39 13 35Z" fill="#fff6b0"/>
      <path d="M48 38Q56 42 54 54Q52 63 44 59L43 42Z" fill="url(#b)" class="o"/>
      <rect x="20" y="69" width="11" height="5" rx="2" fill="#263039" class="o"/><rect x="33" y="69" width="11" height="5" rx="2" fill="#263039" class="o"/>
    </g>
    <g id="west"><use href="#front"/><path d="M44 31H57V62H44Z" fill="#0a2447" opacity=".34"/></g>
    <g id="east" transform="translate(64 0) scale(-1 1)"><use href="#west"/></g>
    <g id="back"><use href="#front"/><rect x="22" y="23" width="20" height="7" fill="#65737d"/><path d="M25 34H39V59H25Z" fill="#17365f" opacity=".6"/></g>
  </defs>
  <use href="#front" transform="translate(0 1)"/><use href="#front" transform="translate(64 0)"/><use href="#front" transform="translate(128 1)"/><use href="#front" transform="translate(192 0)"/>
  <use href="#west" transform="translate(0 81)"/><use href="#west" transform="translate(64 80)"/><use href="#west" transform="translate(128 81)"/><use href="#west" transform="translate(192 80)"/>
  <use href="#east" transform="translate(0 161)"/><use href="#east" transform="translate(64 160)"/><use href="#east" transform="translate(128 161)"/><use href="#east" transform="translate(192 160)"/>
  <use href="#back" transform="translate(0 241)"/><use href="#back" transform="translate(64 240)"/><use href="#back" transform="translate(128 241)"/><use href="#back" transform="translate(192 240)"/>
</svg>
